<mxfile host="app.diagrams.net" modified="2022-11-18T18:30:41.262Z" agent="5.0 (Windows NT 10.0; Win64; x64) AppleWebKit/537.36 (KHTML, like Gecko) Chrome/107.0.0.0 Safari/537.36 Edg/107.0.1418.42" etag="HQBtvrSpkCPGd30fLqoV" version="20.5.3" type="github">
  <diagram id="prtHgNgQTEPvFCAcTncT" name="Page-1">
    <mxGraphModel dx="895" dy="582" grid="1" gridSize="10" guides="1" tooltips="1" connect="1" arrows="1" fold="1" page="1" pageScale="1" pageWidth="1100" pageHeight="850" math="0" shadow="0">
      <root>
        <mxCell id="0" />
        <mxCell id="1" parent="0" />
        <mxCell id="dNxyNK7c78bLwvsdeMH5-11" value="MAE Web" style="swimlane;html=1;startSize=20;horizontal=1;containerType=tree;glass=0;fillColor=#dae8fc;strokeColor=#6c8ebf;" parent="1" vertex="1">
          <mxGeometry x="40" y="30" width="910" height="460" as="geometry">
            <mxRectangle x="40" y="70" width="90" height="30" as="alternateBounds" />
          </mxGeometry>
        </mxCell>
        <mxCell id="EQZHhqYQZV3vNxJheiTi-2" value="&lt;font style=&quot;font-size: 14px;&quot;&gt;Inicio / &lt;/font&gt;&lt;font style=&quot;font-size: 12px;&quot;&gt;Menu&lt;/font&gt;" style="rounded=1;whiteSpace=wrap;html=1;fillColor=#dae8fc;strokeColor=#6c8ebf;" vertex="1" parent="dNxyNK7c78bLwvsdeMH5-11">
          <mxGeometry x="395" y="40" width="120" height="60" as="geometry" />
        </mxCell>
        <mxCell id="EQZHhqYQZV3vNxJheiTi-3" style="edgeStyle=orthogonalEdgeStyle;rounded=0;orthogonalLoop=1;jettySize=auto;html=1;fontSize=12;entryX=0.5;entryY=0;entryDx=0;entryDy=0;exitX=0;exitY=0.5;exitDx=0;exitDy=0;" edge="1" parent="dNxyNK7c78bLwvsdeMH5-11" source="EQZHhqYQZV3vNxJheiTi-2" target="EQZHhqYQZV3vNxJheiTi-1">
          <mxGeometry relative="1" as="geometry">
            <mxPoint x="310" y="80" as="sourcePoint" />
            <Array as="points">
              <mxPoint x="110" y="70" />
            </Array>
          </mxGeometry>
        </mxCell>
        <mxCell id="EQZHhqYQZV3vNxJheiTi-1" value="&lt;font style=&quot;font-size: 12px;&quot;&gt;Quienes Somos&lt;/font&gt;" style="rounded=1;whiteSpace=wrap;html=1;fillColor=#dae8fc;strokeColor=#6c8ebf;" vertex="1" parent="dNxyNK7c78bLwvsdeMH5-11">
          <mxGeometry x="50" y="160" width="120" height="51" as="geometry" />
        </mxCell>
        <mxCell id="EQZHhqYQZV3vNxJheiTi-4" value="&lt;font style=&quot;font-size: 12px;&quot;&gt;Servicios&lt;/font&gt;" style="rounded=1;whiteSpace=wrap;html=1;fillColor=#dae8fc;strokeColor=#6c8ebf;" vertex="1" parent="dNxyNK7c78bLwvsdeMH5-11">
          <mxGeometry x="190" y="160" width="120" height="51" as="geometry" />
        </mxCell>
        <mxCell id="EQZHhqYQZV3vNxJheiTi-5" value="&lt;font style=&quot;font-size: 12px;&quot;&gt;Muebles&lt;/font&gt;" style="rounded=1;whiteSpace=wrap;html=1;fillColor=#ffff88;strokeColor=#36393d;" vertex="1" parent="dNxyNK7c78bLwvsdeMH5-11">
          <mxGeometry x="330" y="160" width="120" height="51" as="geometry" />
        </mxCell>
        <mxCell id="EQZHhqYQZV3vNxJheiTi-6" value="&lt;font style=&quot;font-size: 12px;&quot;&gt;Contacto&lt;/font&gt;" style="rounded=1;whiteSpace=wrap;html=1;fillColor=#dae8fc;strokeColor=#6c8ebf;" vertex="1" parent="dNxyNK7c78bLwvsdeMH5-11">
          <mxGeometry x="610" y="160" width="120" height="51" as="geometry" />
        </mxCell>
        <mxCell id="EQZHhqYQZV3vNxJheiTi-7" value="&lt;font style=&quot;font-size: 12px;&quot;&gt;Aviso de Privacidad&lt;br&gt;&lt;/font&gt;" style="rounded=1;whiteSpace=wrap;html=1;fillColor=#dae8fc;strokeColor=#6c8ebf;" vertex="1" parent="dNxyNK7c78bLwvsdeMH5-11">
          <mxGeometry x="750" y="160" width="120" height="51" as="geometry" />
        </mxCell>
        <mxCell id="EQZHhqYQZV3vNxJheiTi-8" value="&lt;font style=&quot;font-size: 12px;&quot;&gt;Capacidades&lt;/font&gt;" style="rounded=1;whiteSpace=wrap;html=1;fillColor=#dae8fc;strokeColor=#6c8ebf;" vertex="1" parent="dNxyNK7c78bLwvsdeMH5-11">
          <mxGeometry x="470" y="160" width="120" height="51" as="geometry" />
        </mxCell>
        <mxCell id="EQZHhqYQZV3vNxJheiTi-10" value="" style="endArrow=classic;html=1;rounded=0;fontSize=12;entryX=0.5;entryY=0;entryDx=0;entryDy=0;exitX=0.042;exitY=0.833;exitDx=0;exitDy=0;exitPerimeter=0;" edge="1" parent="dNxyNK7c78bLwvsdeMH5-11">
          <mxGeometry width="50" height="50" relative="1" as="geometry">
            <mxPoint x="394.99999999999994" y="89.98000000000002" as="sourcePoint" />
            <mxPoint x="244.96" y="160" as="targetPoint" />
            <Array as="points">
              <mxPoint x="244.96" y="90" />
            </Array>
          </mxGeometry>
        </mxCell>
        <mxCell id="EQZHhqYQZV3vNxJheiTi-13" value="" style="endArrow=classic;html=1;rounded=0;fontSize=12;exitX=0.325;exitY=0.983;exitDx=0;exitDy=0;exitPerimeter=0;entryX=0.5;entryY=0;entryDx=0;entryDy=0;" edge="1" parent="dNxyNK7c78bLwvsdeMH5-11" source="EQZHhqYQZV3vNxJheiTi-2" target="EQZHhqYQZV3vNxJheiTi-5">
          <mxGeometry width="50" height="50" relative="1" as="geometry">
            <mxPoint x="430" y="280" as="sourcePoint" />
            <mxPoint x="480" y="230" as="targetPoint" />
          </mxGeometry>
        </mxCell>
        <mxCell id="EQZHhqYQZV3vNxJheiTi-14" value="" style="endArrow=classic;html=1;rounded=0;fontSize=12;exitX=0.75;exitY=1;exitDx=0;exitDy=0;entryX=0.5;entryY=0;entryDx=0;entryDy=0;" edge="1" parent="dNxyNK7c78bLwvsdeMH5-11" source="EQZHhqYQZV3vNxJheiTi-2" target="EQZHhqYQZV3vNxJheiTi-8">
          <mxGeometry width="50" height="50" relative="1" as="geometry">
            <mxPoint x="430" y="280" as="sourcePoint" />
            <mxPoint x="480" y="230" as="targetPoint" />
          </mxGeometry>
        </mxCell>
        <mxCell id="EQZHhqYQZV3vNxJheiTi-15" value="" style="endArrow=classic;html=1;rounded=0;fontSize=12;entryX=0.5;entryY=0;entryDx=0;entryDy=0;" edge="1" parent="dNxyNK7c78bLwvsdeMH5-11">
          <mxGeometry width="50" height="50" relative="1" as="geometry">
            <mxPoint x="515" y="90" as="sourcePoint" />
            <mxPoint x="675" y="160" as="targetPoint" />
            <Array as="points">
              <mxPoint x="675" y="90" />
            </Array>
          </mxGeometry>
        </mxCell>
        <mxCell id="EQZHhqYQZV3vNxJheiTi-16" value="" style="endArrow=classic;html=1;rounded=0;fontSize=12;exitX=1;exitY=0.5;exitDx=0;exitDy=0;entryX=0.5;entryY=0;entryDx=0;entryDy=0;" edge="1" parent="dNxyNK7c78bLwvsdeMH5-11" source="EQZHhqYQZV3vNxJheiTi-2" target="EQZHhqYQZV3vNxJheiTi-7">
          <mxGeometry width="50" height="50" relative="1" as="geometry">
            <mxPoint x="430" y="280" as="sourcePoint" />
            <mxPoint x="480" y="230" as="targetPoint" />
            <Array as="points">
              <mxPoint x="810" y="70" />
            </Array>
          </mxGeometry>
        </mxCell>
        <mxCell id="EQZHhqYQZV3vNxJheiTi-17" value="&lt;b&gt;www.maecq.com&lt;/b&gt;" style="text;html=1;strokeColor=none;fillColor=none;align=center;verticalAlign=middle;whiteSpace=wrap;rounded=0;fontSize=12;" vertex="1" parent="dNxyNK7c78bLwvsdeMH5-11">
          <mxGeometry x="50" y="30" width="60" height="30" as="geometry" />
        </mxCell>
      </root>
    </mxGraphModel>
  </diagram>
</mxfile>
